<svg width="44" height="42" viewBox="0 0 44 42" fill="none" xmlns="http://www.w3.org/2000/svg">
<path d="M31.1071 22.3693C37.3607 16.6824 43.25 11.3598 43.25 6.78599C43.25 3.04195 40.3155 0.107422 36.5714 0.107422C34.4667 0.107422 32.4226 1.09909 31.1071 2.63718C29.7714 1.09909 27.7476 0.107422 25.6429 0.107422C21.8988 0.107422 18.9643 3.04195 18.9643 6.78599C18.9643 11.3598 24.8536 16.6824 31.1071 22.3693ZM25.6429 4.15504C26.5333 4.15504 27.444 4.58004 28.031 5.26814L31.1071 8.89076L34.1833 5.26814C34.7702 4.58004 35.681 4.15504 36.5714 4.15504C38.0691 4.15504 39.2024 5.28837 39.2024 6.78599C39.2024 9.05266 35.0738 13.2015 31.1071 16.8848C27.1405 13.2015 23.0119 9.03242 23.0119 6.78599C23.0119 5.28837 24.1452 4.15504 25.6429 4.15504Z" fill="url(#paint0_linear_437_32103)"/>
<path d="M37.1786 28.4408H33.131C33.131 26.0122 31.6131 23.8265 29.3464 22.9765L16.8798 18.3217H0.75V40.5836H12.8929V37.6693L27.0595 41.5955L43.25 36.536V34.5122C43.25 31.1527 40.5381 28.4408 37.1786 28.4408ZM4.79762 36.536V22.3693H8.84524V36.536H4.79762ZM26.9988 37.3658L12.8929 33.4598V22.3693H16.1512L27.9298 26.761C28.6179 27.0241 29.0833 27.6919 29.0833 28.4408C29.0833 28.4408 25.056 28.3396 24.4286 28.1372L19.6119 26.5384L18.3369 30.3836L23.1536 31.9824C24.1857 32.3265 25.2583 32.5086 26.3512 32.5086H37.1786C37.9679 32.5086 38.6762 32.9741 39 33.6419L26.9988 37.3658Z" fill="url(#paint1_linear_437_32103)"/>
<defs>
<linearGradient id="paint0_linear_437_32103" x1="0.439439" y1="20.8625" x2="43.5831" y2="20.8625" gradientUnits="userSpaceOnUse">
<stop stop-color="#7F01CD"/>
<stop offset="1" stop-color="#FF8D23"/>
</linearGradient>
<linearGradient id="paint1_linear_437_32103" x1="0.439439" y1="20.8625" x2="43.5831" y2="20.8625" gradientUnits="userSpaceOnUse">
<stop stop-color="#7F01CD"/>
<stop offset="1" stop-color="#FF8D23"/>
</linearGradient>
</defs>
</svg>
