<svg width="22" height="42" viewBox="0 0 22 42" fill="none" xmlns="http://www.w3.org/2000/svg">
<path d="M21.119 17.674V0.613281H0.880859V17.674C0.880859 18.3823 1.24514 19.0502 1.87253 19.4145L10.3321 24.4942L8.32848 29.2299L1.42729 29.8169L6.66895 34.3502L5.07014 41.0895L10.9999 37.5073L16.9297 41.0895L15.3511 34.3502L20.5928 29.8169L13.6916 29.2299L11.688 24.4942L20.1475 19.4145C20.7547 19.0502 21.119 18.4026 21.119 17.674ZM8.9761 18.9692L4.92848 16.5407V4.6609H8.9761V18.9692ZM17.0713 16.5407L13.0237 18.9692V4.6609H17.0713V16.5407Z" fill="url(#paint0_linear_437_32099)"/>
<defs>
<linearGradient id="paint0_linear_437_32099" x1="0.732973" y1="20.8621" x2="21.2776" y2="20.8621" gradientUnits="userSpaceOnUse">
<stop stop-color="#7F01CD"/>
<stop offset="1" stop-color="#FF8D23"/>
</linearGradient>
</defs>
</svg>
