<svg width="38" height="46" viewBox="0 0 38 46" fill="none" xmlns="http://www.w3.org/2000/svg">
<path d="M18.9994 0.589844L0.785156 8.68508V20.8279C0.785156 32.0601 8.55659 42.5637 18.9994 45.1137C29.4423 42.5637 37.2137 32.0601 37.2137 20.8279V8.68508L18.9994 0.589844ZM33.1661 20.8279C33.1661 29.9756 27.1352 38.4148 18.9994 40.9244C10.8637 38.4148 4.83278 29.9756 4.83278 20.8279V11.316L18.9994 5.02199L33.1661 11.316V20.8279ZM9.71016 22.022L6.85659 24.8756L14.9518 32.9708L31.1423 16.7803L28.2887 13.9065L14.9518 27.2434L9.71016 22.022Z" fill="url(#paint0_linear_437_32107)"/>
<defs>
<linearGradient id="paint0_linear_437_32107" x1="0.518961" y1="22.8636" x2="37.4993" y2="22.8636" gradientUnits="userSpaceOnUse">
<stop stop-color="#7F01CD"/>
<stop offset="1" stop-color="#FF8D23"/>
</linearGradient>
</defs>
</svg>
