<svg width="56" height="49" viewBox="0 0 56 49" fill="none" xmlns="http://www.w3.org/2000/svg">
    <g clip-path="url(#clip0_1868_42241)">
    <path fill-rule="evenodd" clip-rule="evenodd" d="M54.6473 8.00295L45.8704 0.869717C44.5242 -0.224002 42.5737 -0.273742 41.1698 0.750775L30.7051 8.38843C29.2698 9.43619 28.3223 10.99 28.0714 12.7109L28.0692 12.7092L23.8367 47.2417C23.709 48.2824 22.5016 48.7674 21.6577 48.237C23.0801 49.3194 25.1409 49.2804 26.5213 48.071L53.4741 24.452C54.1528 23.8573 54.584 23.0436 54.6865 22.1645L55.9655 11.1944C56.1067 9.98494 55.6116 8.78742 54.6473 8.00349V8.00295Z" fill="#0085FF"></path>
    <path fill-rule="evenodd" clip-rule="evenodd" d="M28.069 12.7087L17.2118 4.20278C15.8694 3.15123 13.9531 3.13176 12.5884 4.15682L2.67024 11.6042C1.88456 12.194 1.37664 13.0639 1.26072 14.0181L0.0141639 24.2774C-0.114076 25.3311 0.247684 26.3859 1.002 27.1574L21.391 48.0213C22.2187 48.8685 23.6949 48.3976 23.8366 47.2406L28.069 12.7087Z" fill="url(#paint0_linear_1868_42241)"></path>
    <path d="M23.4728 20.8886C22.2565 20.8886 21.5778 22.0693 21.3073 23.0679C22.1148 22.9457 23.0259 22.8252 23.7472 22.4235C24.0742 22.2315 24.296 21.9515 24.296 21.5709C24.296 21.4065 24.2305 21.2519 24.1 21.1065C23.9695 20.961 23.7601 20.8886 23.4728 20.8886ZM26.6866 26.8843C26.7684 26.9811 26.7757 27.1189 26.6973 27.2184C25.6462 28.5554 23.7472 29.0182 22.3461 29.0182C21.2434 29.0182 20.0406 28.6495 19.2594 27.8812C18.4614 27.0676 18.1226 25.9625 18.1226 24.8585C18.1226 23.8421 18.3533 22.8338 18.8181 21.9212C19.2627 21.0616 19.9235 20.2917 20.7484 19.7516C21.6035 19.2002 22.6216 18.9082 23.6486 18.9082C24.5452 18.9082 25.4737 19.1472 26.1569 19.7327C26.6721 20.163 27.0389 20.7875 27.0389 21.4573C27.0389 21.9061 26.9476 22.3164 26.7645 22.6889C26.5814 23.0555 26.2616 23.3836 25.8041 23.6745C25.3533 23.9648 24.7429 24.2114 23.9718 24.4136C23.2074 24.6158 22.2442 24.7736 21.081 24.8872C20.9545 25.9625 21.5369 26.82 22.8254 26.82C23.5904 26.82 24.1118 26.5923 24.5766 26.2631C25.1181 25.8798 25.864 25.9074 26.2874 26.4107L26.6861 26.8843H26.6866Z" fill="white"></path>
    <path d="M11.4145 28.3121C10.9105 25.9052 9.90022 21.6168 9.16998 19.1823C9.1291 19.045 9.23494 18.9082 9.38278 18.9082H10.5C11.5242 18.9082 12.4185 19.5878 12.6246 20.5566C12.9909 22.2775 13.2193 23.7334 13.5117 25.3008C14.7599 22.6294 15.1502 21.5768 16.0014 20.0025C16.3699 19.3202 17.1113 18.9082 17.9082 18.9082H19.4902C19.6549 18.9082 19.7618 19.0758 19.6873 19.218L14.8445 28.4305C14.7588 28.5933 14.6053 28.7117 14.4183 28.7392C14.1501 28.7782 13.6976 28.8247 13.0625 28.8247C12.5255 28.8247 12.1369 28.7911 11.8809 28.7576C11.639 28.7257 11.4626 28.5435 11.4139 28.3121H11.4145Z" fill="white"></path>
    <path d="M12.1738 28.4981C12.0483 28.8084 11.7101 28.7333 11.588 28.6208C11.5012 28.5414 11.4402 28.4332 11.415 28.3121C10.911 25.9046 9.90075 21.6157 9.16995 19.1818C9.12907 19.045 9.23547 18.9082 9.38331 18.9082H10.519C11.541 18.9082 12.4219 19.6024 12.6274 20.5691C12.9919 22.2845 13.2199 23.7372 13.5122 25.3008L12.1738 28.4976V28.4981Z" fill="url(#paint1_linear_1868_42241)"></path>
    <path d="M41.2643 20.8886C40.048 20.8886 39.3693 22.0693 39.0988 23.0679C39.9063 22.9457 40.8174 22.8252 41.5387 22.4235C41.8657 22.2315 42.0875 21.9515 42.0875 21.5709C42.0875 21.4065 42.022 21.2519 41.8915 21.1065C41.761 20.961 41.5516 20.8886 41.2643 20.8886ZM44.4781 26.8843C44.5599 26.9811 44.5672 27.1189 44.4888 27.2184C43.4377 28.5554 41.5387 29.0182 40.1376 29.0182C39.0349 29.0182 37.8321 28.6495 37.0509 27.8812C36.2529 27.0676 35.9141 25.9625 35.9141 24.8585C35.9141 23.8421 36.1448 22.8338 36.6096 21.9212C37.0542 21.0616 37.715 20.2917 38.5399 19.7516C39.395 19.2002 40.4131 18.9082 41.4401 18.9082C42.3367 18.9082 43.2652 19.1472 43.9484 19.7327C44.4636 20.163 44.8304 20.7875 44.8304 21.4573C44.8304 21.9061 44.7391 22.3164 44.556 22.6889C44.3729 23.0555 44.0531 23.3836 43.5956 23.6745C43.1448 23.9648 42.5344 24.2114 41.7633 24.4136C40.9989 24.6158 40.0357 24.7736 38.8725 24.8872C38.746 25.9625 39.3284 26.82 40.6169 26.82C41.3819 26.82 41.9033 26.5923 42.3681 26.2631C42.9096 25.8798 43.6555 25.9074 44.0789 26.4107L44.4776 26.8843H44.4781Z" fill="white"></path>
    <path d="M29.206 28.3121C28.702 25.9052 27.6917 21.6168 26.9615 19.1823C26.9206 19.045 27.0264 18.9082 27.1743 18.9082H28.2915C29.3157 18.9082 30.21 19.5878 30.4161 20.5566C30.7824 22.2775 31.0108 23.7334 31.3032 25.3008C32.5514 22.6294 32.9417 21.5768 33.7929 20.0025C34.1614 19.3202 34.9028 18.9082 35.6997 18.9082H37.2817C37.4464 18.9082 37.5533 19.0758 37.4789 19.218L32.636 28.4305C32.5503 28.5933 32.3968 28.7117 32.2098 28.7392C31.9416 28.7782 31.4891 28.8247 30.854 28.8247C30.317 28.8247 29.9284 28.7911 29.6724 28.7576C29.4305 28.7257 29.2541 28.5435 29.2054 28.3121H29.206Z" fill="white"></path>
    <path d="M29.9648 28.4981C29.8394 28.8084 29.5011 28.7333 29.379 28.6208C29.2922 28.5414 29.2312 28.4332 29.206 28.3121C28.702 25.9047 27.6918 21.6157 26.961 19.1818C26.9201 19.045 27.0265 18.9082 27.1743 18.9082H28.31C29.332 18.9082 30.2129 19.6024 30.4184 20.5691C30.783 22.2845 31.0109 23.7372 31.3032 25.3008L29.9648 28.4976V28.4981Z" fill="url(#paint2_linear_1868_42241)"></path>
    </g>
    <defs>
    <linearGradient id="paint0_linear_1868_42241" x1="4.8016" y1="16.0207" x2="27.016" y2="32.6282" gradientUnits="userSpaceOnUse">
    <stop offset="0.4" stop-color="#0085FF"></stop>
    <stop offset="1" stop-color="#0052CC"></stop>
    </linearGradient>
    <linearGradient id="paint1_linear_1868_42241" x1="10.7105" y1="19.0839" x2="12.4797" y2="27.0445" gradientUnits="userSpaceOnUse">
    <stop stop-color="#0085FF" stop-opacity="0"></stop>
    <stop offset="1" stop-color="#0085FF" stop-opacity="0.2"></stop>
    </linearGradient>
    <linearGradient id="paint2_linear_1868_42241" x1="28.5015" y1="19.0839" x2="30.2707" y2="27.0445" gradientUnits="userSpaceOnUse">
    <stop stop-color="#0085FF" stop-opacity="0"></stop>
    <stop offset="1" stop-color="#0085FF" stop-opacity="0.2"></stop>
    </linearGradient>
    <clipPath id="clip0_1868_42241">
    <rect width="56" height="49" fill="white"></rect>
    </clipPath>
    </defs>
  </svg>