<svg width="39" height="30" viewBox="0 0 39 30" fill="none" xmlns="http://www.w3.org/2000/svg"><mask id="a" maskUnits="userSpaceOnUse" x="0" y="0" width="39" height="30" style="mask-type: alpha;"><path fill-rule="evenodd" clip-rule="evenodd" d="M4.5 0h30v6.75H39v16.5h-4.5V30h-30v-6.75H0V6.75h4.5V0zm22.194 8.565a1.044 1.044 0 00-.592-.591l-6.138-2.402a1.044 1.044 0 00-.76 0l-6.139 2.402c-.27.106-.485.32-.591.591l-2.402 6.138a1.044 1.044 0 000 .761l2.402 6.138c.106.271.32.486.591.592l.164.064.003.002 5.822 2.278.004.001.145.057c.245.096.517.096.761 0l5.971-2.337.004-.001.163-.064c.271-.106.486-.32.592-.592l2.402-6.138a1.042 1.042 0 000-.76l-2.402-6.139z" fill="#D9D9D9"></path></mask><g mask="url(#a)"><path d="M1.46 13.25c-.53 0-.96-.42-.96-.938V11h37.987v1.313c0 .517-.43.937-.96.937H1.46z" fill="#0048B3"></path><path d="M4.46 16.25c-.53 0-.96-.42-.96-.938V14h32.227v1.313c0 .517-.43.937-.96.937H4.46z" fill="#0085FF"></path><path d="M7.21 19.25c-.53 0-.96-.42-.96-.938V17h26.467v1.313c0 .517-.43.937-.96.937H7.21z" fill="#73B5FF"></path><g filter="url(#filter0_f_273_130091)"><path d="M28.403 6.838a1.307 1.307 0 00-.741-.74L19.976 3.09a1.307 1.307 0 00-.952 0l-7.686 3.007c-.34.133-.608.402-.74.741L7.59 14.524c-.12.306-.12.646 0 .952l3.007 7.686c.133.34.402.608.741.74l.205.08.004.003 7.29 2.852.004.002.183.071c.306.12.646.12.952 0l.183-.071.004-.002 7.29-2.852.005-.002.204-.08c.34-.133.608-.402.74-.741l3.008-7.686c.12-.306.12-.646 0-.952l-3.007-7.686z" fill="url(#paint0_linear_273_130091)"></path></g><path d="M28.403 6.838a1.307 1.307 0 00-.741-.74L19.976 3.09a1.307 1.307 0 00-.952 0l-7.686 3.007c-.34.133-.608.402-.74.741L7.59 14.524c-.12.306-.12.646 0 .952l3.007 7.686c.133.34.402.608.741.74l.205.08.004.003 7.29 2.852.004.002.183.071c.306.12.646.12.952 0l.183-.071.004-.002 7.29-2.852.005-.002.204-.08c.34-.133.608-.402.74-.741l3.008-7.686c.12-.306.12-.646 0-.952l-3.007-7.686z" fill="url(#paint1_linear_273_130091)"></path></g><path d="M19.058 9.595a.563.563 0 01.975 0l4.477 7.753a.563.563 0 01-.488.845h-8.953a.563.563 0 01-.488-.845l4.477-7.753z" fill="url(#paint2_linear_273_130091)"></path><defs><filter id="filter0_f_273_130091" x="3.75" y="-0.75" width="31.5" height="31.5" filterUnits="userSpaceOnUse" color-interpolation-filters="sRGB"><feFlood flood-opacity="0" result="BackgroundImageFix"></feFlood><feBlend in="SourceGraphic" in2="BackgroundImageFix" result="shape"></feBlend><feGaussianBlur stdDeviation="1.875" result="effect1_foregroundBlur_273_130091"></feGaussianBlur></filter><linearGradient id="paint0_linear_273_130091" x1="19.4184" y1="26.938" x2="30.057" y2="9.48458" gradientUnits="userSpaceOnUse"><stop stop-color="#0052CC"></stop><stop offset="1" stop-color="#73B5FF"></stop></linearGradient><linearGradient id="paint1_linear_273_130091" x1="19.4184" y1="26.938" x2="30.057" y2="9.48458" gradientUnits="userSpaceOnUse"><stop stop-color="#0052CC"></stop><stop offset="1" stop-color="#73B5FF"></stop></linearGradient><linearGradient id="paint2_linear_273_130091" x1="19.5027" y1="21.3085" x2="25.084" y2="12.152" gradientUnits="userSpaceOnUse"><stop stop-color="#0052CC"></stop><stop offset="1" stop-color="#73B5FF"></stop></linearGradient></defs></svg> 