<svg viewBox="0 0 24 24" fill="none" xmlns="http://www.w3.org/2000/svg"><path fill-rule="evenodd" clip-rule="evenodd" d="M18.8015 4.581C19.0844 4.69172 19.3083 4.91559 19.419 5.19855L21.9251 11.603C22.025 11.8582 22.025 12.1418 21.9251 12.397L19.419 18.8015C19.3083 19.0844 19.0844 19.3083 18.8015 19.419L18.6312 19.4856L18.6273 19.4872L12.5528 21.8641L12.549 21.8656L12.397 21.9251C12.1418 22.025 11.8582 22.025 11.603 21.9251L11.4512 21.8657L11.4472 21.8641L5.37272 19.4872L5.36888 19.4857L5.19854 19.419C4.91558 19.3083 4.69172 19.0844 4.581 18.8015L2.07491 12.397C1.97503 12.1418 1.97503 11.8582 2.07491 11.603L4.581 5.19855C4.69172 4.91558 4.91559 4.69172 5.19855 4.581L11.603 2.07491C11.8582 1.97503 12.1418 1.97503 12.397 2.07491L18.8015 4.581ZM15.9594 7.68108C16.1241 7.74554 16.2545 7.87586 16.3189 8.04058L17.7778 11.7689C17.836 11.9175 17.836 12.0825 17.7778 12.2311L16.3189 15.9594C16.2545 16.1241 16.1241 16.2545 15.9594 16.3189L15.8603 16.3577L15.858 16.3586L12.3218 17.7423L12.3196 17.7432L12.2311 17.7778C12.0825 17.836 11.9175 17.836 11.7689 17.7778L11.6805 17.7432L11.6782 17.7423L8.14198 16.3586L8.13974 16.3577L8.04058 16.3189C7.87586 16.2545 7.74554 16.1241 7.68108 15.9594L6.22218 12.2311C6.16404 12.0825 6.16404 11.9175 6.22218 11.7689L7.68108 8.04058C7.74554 7.87586 7.87586 7.74554 8.04059 7.68108L11.7689 6.22218C11.9175 6.16404 12.0825 6.16404 12.2311 6.22218L15.9594 7.68108Z" fill="url(#paint0_linear_768_10896)"></path><defs><linearGradient id="paint0_linear_768_10896" x1="4.84793" y1="4.83087" x2="19.883" y2="5.57261" gradientUnits="userSpaceOnUse"><stop stop-color="#7F01CD"></stop><stop offset="1" stop-color="#26BE74"></stop></linearGradient></defs></svg> 