<svg width="31" height="30" viewBox="0 0 31 30" fill="none" xmlns="http://www.w3.org/2000/svg"><mask id="mask0_273_130115" maskUnits="userSpaceOnUse" x="0" y="0" width="31" height="30" style="mask-type: alpha;"><path fill-rule="evenodd" clip-rule="evenodd" d="M30.5 0H0.5V30H30.5V0ZM22.1023 7.9736C22.3735 8.07971 22.588 8.29428 22.6942 8.56546L25.096 14.7034C25.1918 14.948 25.1918 15.2198 25.096 15.4644L22.6942 21.6023C22.588 21.8735 22.3735 22.0881 22.1023 22.1942L21.9392 22.258L21.9354 22.2595L15.9644 24.596C15.7197 24.6917 15.448 24.6917 15.2034 24.596L15.058 24.5391L15.0541 24.5376L9.23242 22.2595L9.22864 22.2581L9.06543 22.1942C8.79431 22.0881 8.57971 21.8735 8.47363 21.6023L6.07178 15.4644C5.97607 15.2198 5.97607 14.948 6.07178 14.7034L8.47363 8.56546C8.57971 8.29425 8.79431 8.07971 9.06543 7.9736L15.2034 5.57181C15.448 5.47607 15.7197 5.47607 15.9644 5.57181L22.1023 7.9736Z" fill="#D9D9D9"></path></mask><g mask="url(#mask0_273_130115)"><g filter="url(#filter0_f_273_130115)"><path d="M24.4028 6.83826C24.2699 6.4987 24.0013 6.23007 23.6617 6.0972L15.9764 3.08989C15.6701 2.97004 15.3299 2.97004 15.0236 3.08989L7.33827 6.0972C6.99871 6.23006 6.73007 6.4987 6.5972 6.83826L3.58989 14.5236C3.47004 14.8299 3.47004 15.1701 3.58989 15.4764L6.5972 23.1617C6.73007 23.5013 6.9987 23.7699 7.33825 23.9028L7.54265 23.9828C7.54419 23.9834 7.54573 23.984 7.54727 23.9846L14.8367 26.837C14.8383 26.8376 14.8399 26.8382 14.8414 26.8388L15.0236 26.9101C15.3299 27.03 15.6701 27.03 15.9764 26.9101L16.1588 26.8387L16.1633 26.837L23.4527 23.9846L23.4575 23.9827L23.6617 23.9028C24.0013 23.7699 24.2699 23.5013 24.4028 23.1618L27.4101 15.4764C27.53 15.1701 27.53 14.8299 27.4101 14.5236L24.4028 6.83826Z" fill="url(#paint0_linear_273_130115)"></path></g><path d="M24.4028 6.83826C24.2699 6.4987 24.0013 6.23007 23.6617 6.0972L15.9764 3.08989C15.6701 2.97004 15.3299 2.97004 15.0236 3.08989L7.33827 6.0972C6.99871 6.23006 6.73007 6.4987 6.5972 6.83826L3.58989 14.5236C3.47004 14.8299 3.47004 15.1701 3.58989 15.4764L6.5972 23.1617C6.73007 23.5013 6.9987 23.7699 7.33825 23.9028L7.54265 23.9828C7.54419 23.9834 7.54573 23.984 7.54727 23.9846L14.8367 26.837C14.8383 26.8376 14.8399 26.8382 14.8414 26.8388L15.0236 26.9101C15.3299 27.03 15.6701 27.03 15.9764 26.9101L16.1588 26.8387L16.1633 26.837L23.4527 23.9846L23.4575 23.9827L23.6617 23.9028C24.0013 23.7699 24.2699 23.5013 24.4028 23.1618L27.4101 15.4764C27.53 15.1701 27.53 14.8299 27.4101 14.5236L24.4028 6.83826Z" fill="url(#paint1_linear_273_130115)"></path></g><path d="M13.778 17.5431C13.4925 16.124 12.9193 13.5963 12.5051 12.1616C12.4816 12.0806 12.542 12 12.6258 12H13.2594C13.8403 12 14.3475 12.4006 14.4644 12.9716C14.6042 13.6544 14.7086 14.2664 14.8124 14.8753L14.8126 14.8761C14.863 15.1716 14.9133 15.4663 14.9674 15.768C15.2262 15.1925 15.4199 14.7444 15.5852 14.3622C15.8721 13.6988 16.0732 13.2338 16.3794 12.645C16.5887 12.2428 17.0092 12 17.4612 12H18.3584C18.4517 12 18.5124 12.0988 18.4702 12.1826L15.7236 17.6126C15.675 17.7085 15.588 17.7783 15.4819 17.7945C15.3298 17.8175 15.0732 17.8449 14.713 17.8449C14.4085 17.8449 14.188 17.8251 14.0429 17.8054C13.9057 17.7866 13.8057 17.6792 13.778 17.5428V17.5431Z" fill="#0085FF"></path><defs><filter id="filter0_f_273_130115" x="-0.25" y="-0.75" width="31.5" height="31.5" filterUnits="userSpaceOnUse" color-interpolation-filters="sRGB"><feFlood flood-opacity="0" result="BackgroundImageFix"></feFlood><feBlend mode="normal" in="SourceGraphic" in2="BackgroundImageFix" result="shape"></feBlend><feGaussianBlur stdDeviation="1.875" result="effect1_foregroundBlur_273_130115"></feGaussianBlur></filter><linearGradient id="paint0_linear_273_130115" x1="3.42507" y1="15.1195" x2="27.3374" y2="15.1195" gradientUnits="userSpaceOnUse"><stop stop-color="#002980"></stop><stop offset="1" stop-color="#0085FF"></stop></linearGradient><linearGradient id="paint1_linear_273_130115" x1="3.42507" y1="15.1195" x2="27.3374" y2="15.1195" gradientUnits="userSpaceOnUse"><stop stop-color="#002980"></stop><stop offset="1" stop-color="#0085FF"></stop></linearGradient></defs></svg> 