<svg xmlns="http://www.w3.org/2000/svg" width="18" height="20" viewBox="0 0 18 20" fill="none">
  <path fill-rule="evenodd" clip-rule="evenodd" d="M9.0912 0.614857L15.7157 2.30327C16.1381 2.40871 16.5096 2.66008 16.7645 3.01295C17.0195 3.36582 17.1414 3.79747 17.1089 4.23158L16.7214 9.31529C16.5662 11.3319 15.8615 13.2675 14.6839 14.9119C13.5063 16.5563 11.9007 17.8468 10.0415 18.6431L9.2296 18.9937C9.11576 19.0419 8.99339 19.0668 8.86977 19.0668C8.74614 19.0668 8.62378 19.0419 8.50994 18.9937L7.69802 18.6431C5.83879 17.8468 4.23322 16.5563 3.05562 14.9119C1.87801 13.2675 1.17336 11.3319 1.01816 9.31529L0.630656 4.23158C0.598105 3.79747 0.720083 3.36582 0.975027 3.01295C1.22997 2.66008 1.60146 2.40871 2.02383 2.30327L8.64834 0.614857C8.79377 0.578902 8.94577 0.578902 9.0912 0.614857ZM6.16989 6.84225V8.08809H5.9623C5.2744 8.08809 4.71675 8.64586 4.71675 9.33394V12.2409C4.71675 12.929 5.2744 13.4868 5.9623 13.4868H11.7749C12.4628 13.4868 13.0204 12.929 13.0204 12.2409V9.33394C13.0204 8.64586 12.4628 8.08809 11.7749 8.08809H11.5673V6.84225C11.5673 6.12634 11.283 5.43975 10.7769 4.93353C10.2708 4.42731 9.58433 4.14291 8.86859 4.14291C8.15286 4.14291 7.46643 4.42731 6.96033 4.93353C6.45422 5.43975 6.16989 6.12634 6.16989 6.84225ZM8.86859 5.38876C8.48318 5.38876 8.11358 5.5419 7.84106 5.81448C7.56855 6.08706 7.41545 6.45676 7.41545 6.84225V8.08809H10.3217V6.84225C10.3217 6.45676 10.1687 6.08706 9.89613 5.81448C9.62361 5.5419 9.25401 5.38876 8.86859 5.38876Z" fill="#CCCCCC"/>
</svg> 