<svg width="32" height="33" viewBox="0 0 32 33" fill="none" xmlns="http://www.w3.org/2000/svg">
<path d="M27.0894 5.67813C25.0498 4.74229 22.8626 4.0528 20.5759 3.65791C20.5342 3.65029 20.4926 3.66933 20.4712 3.70742C20.1899 4.20771 19.8783 4.86038 19.6601 5.37337C17.2005 5.00514 14.7536 5.00514 12.3444 5.37337C12.1262 4.84897 11.8033 4.20771 11.5208 3.70742C11.4993 3.6706 11.4577 3.65156 11.4161 3.65791C9.13055 4.05154 6.94341 4.74103 4.90258 5.67813C4.88491 5.68575 4.86977 5.69846 4.85972 5.71496C0.711189 11.9128 -0.425267 17.9582 0.13224 23.9288C0.134763 23.958 0.15116 23.9859 0.173864 24.0037C2.91095 26.0137 5.56228 27.234 8.16437 28.0428C8.20602 28.0556 8.25014 28.0403 8.27664 28.006C8.89217 27.1655 9.44086 26.2792 9.9113 25.3471C9.93906 25.2925 9.91256 25.2277 9.85582 25.2062C8.98551 24.876 8.1568 24.4735 7.35964 24.0164C7.29659 23.9796 7.29154 23.8894 7.34954 23.8462C7.5173 23.7205 7.68509 23.5897 7.84527 23.4577C7.87425 23.4335 7.91464 23.4284 7.94871 23.4437C13.1857 25.8347 18.8554 25.8347 24.0306 23.4437C24.0647 23.4272 24.1051 23.4323 24.1353 23.4564C24.2955 23.5884 24.4633 23.7205 24.6323 23.8462C24.6903 23.8894 24.6865 23.9796 24.6235 24.0164C23.8263 24.4824 22.9976 24.876 22.126 25.2049C22.0693 25.2265 22.044 25.2925 22.0718 25.3471C22.5523 26.2778 23.101 27.1642 23.7052 28.0048C23.7304 28.0403 23.7758 28.0556 23.8175 28.0428C26.4322 27.234 29.0835 26.0137 31.8206 24.0037C31.8446 23.9859 31.8597 23.9592 31.8622 23.93C32.5294 17.0275 30.7447 11.0316 27.131 5.71622C27.1221 5.69846 27.107 5.68575 27.0894 5.67813ZM10.6934 20.2933C9.11666 20.2933 7.81751 18.8458 7.81751 17.0681C7.81751 15.2904 9.09147 13.8429 10.6934 13.8429C12.3078 13.8429 13.5944 15.3031 13.5692 17.0681C13.5692 18.8458 12.2952 20.2933 10.6934 20.2933ZM21.3263 20.2933C19.7497 20.2933 18.4505 18.8458 18.4505 17.0681C18.4505 15.2904 19.7244 13.8429 21.3263 13.8429C22.9408 13.8429 24.2274 15.3031 24.2022 17.0681C24.2022 18.8458 22.9408 20.2933 21.3263 20.2933Z" fill="#CCD5E0"/>
</svg>
