<svg width="32" height="33" viewBox="0 0 32 33" fill="none" xmlns="http://www.w3.org/2000/svg">
<g clip-path="url(#clip0_473_26186)">
<path d="M32 16.1367C32 7.30016 24.8366 0.136719 16 0.136719C7.16344 0.136719 0 7.30016 0 16.1367C0 24.1227 5.85094 30.742 13.5 31.9423V20.7617H9.4375V16.1367H13.5V12.6117C13.5 8.60172 15.8888 6.38672 19.5434 6.38672C21.2934 6.38672 23.125 6.69922 23.125 6.69922V10.6367H21.1075C19.12 10.6367 18.5 11.8702 18.5 13.1367V16.1367H22.9375L22.2281 20.7617H18.5V31.9423C26.1491 30.742 32 24.1227 32 16.1367Z" fill="#CCD5E0"/>
</g>
<defs>
<clipPath id="clip0_473_26186">
<rect width="32" height="32" fill="white" transform="translate(0 0.136719)"/>
</clipPath>
</defs>
</svg>
