<svg width="32" height="33" viewBox="0 0 32 33" fill="none" xmlns="http://www.w3.org/2000/svg">
<g clip-path="url(#clip0_473_26188)">
<path d="M16 3.01797C20.275 3.01797 20.7813 3.03672 22.4625 3.11172C24.025 3.18047 24.8688 3.44297 25.4313 3.66172C26.175 3.94922 26.7125 4.29922 27.2688 4.85547C27.8313 5.41797 28.175 5.94922 28.4625 6.69297C28.6813 7.25547 28.9438 8.10547 29.0125 9.66172C29.0875 11.3492 29.1063 11.8555 29.1063 16.1242C29.1063 20.3992 29.0875 20.9055 29.0125 22.5867C28.9438 24.1492 28.6813 24.993 28.4625 25.5555C28.175 26.2992 27.825 26.8367 27.2688 27.393C26.7063 27.9555 26.175 28.2992 25.4313 28.5867C24.8688 28.8055 24.0188 29.068 22.4625 29.1367C20.775 29.2117 20.2688 29.2305 16 29.2305C11.725 29.2305 11.2188 29.2117 9.5375 29.1367C7.975 29.068 7.13125 28.8055 6.56875 28.5867C5.825 28.2992 5.2875 27.9492 4.73125 27.393C4.16875 26.8305 3.825 26.2992 3.5375 25.5555C3.31875 24.993 3.05625 24.143 2.9875 22.5867C2.9125 20.8992 2.89375 20.393 2.89375 16.1242C2.89375 11.8492 2.9125 11.343 2.9875 9.66172C3.05625 8.09922 3.31875 7.25547 3.5375 6.69297C3.825 5.94922 4.175 5.41172 4.73125 4.85547C5.29375 4.29297 5.825 3.94922 6.56875 3.66172C7.13125 3.44297 7.98125 3.18047 9.5375 3.11172C11.2188 3.03672 11.725 3.01797 16 3.01797ZM16 0.136719C11.6563 0.136719 11.1125 0.155469 9.40625 0.230469C7.70625 0.305469 6.5375 0.580469 5.525 0.974219C4.46875 1.38672 3.575 1.93047 2.6875 2.82422C1.79375 3.71172 1.25 4.60547 0.8375 5.65547C0.44375 6.67422 0.16875 7.83672 0.09375 9.53672C0.01875 11.2492 0 11.793 0 16.1367C0 20.4805 0.01875 21.0242 0.09375 22.7305C0.16875 24.4305 0.44375 25.5992 0.8375 26.6117C1.25 27.668 1.79375 28.5617 2.6875 29.4492C3.575 30.3367 4.46875 30.8867 5.51875 31.293C6.5375 31.6867 7.7 31.9617 9.4 32.0367C11.1063 32.1117 11.65 32.1305 15.9938 32.1305C20.3375 32.1305 20.8813 32.1117 22.5875 32.0367C24.2875 31.9617 25.4563 31.6867 26.4688 31.293C27.5188 30.8867 28.4125 30.3367 29.3 29.4492C30.1875 28.5617 30.7375 27.668 31.1438 26.618C31.5375 25.5992 31.8125 24.4367 31.8875 22.7367C31.9625 21.0305 31.9813 20.4867 31.9813 16.143C31.9813 11.7992 31.9625 11.2555 31.8875 9.54922C31.8125 7.84922 31.5375 6.68047 31.1438 5.66797C30.75 4.60547 30.2063 3.71172 29.3125 2.82422C28.425 1.93672 27.5313 1.38672 26.4813 0.980469C25.4625 0.586719 24.3 0.311719 22.6 0.236719C20.8875 0.155469 20.3438 0.136719 16 0.136719Z" fill="#CCD5E0"/>
<path d="M16 7.91797C11.4625 7.91797 7.78125 11.5992 7.78125 16.1367C7.78125 20.6742 11.4625 24.3555 16 24.3555C20.5375 24.3555 24.2188 20.6742 24.2188 16.1367C24.2188 11.5992 20.5375 7.91797 16 7.91797ZM16 21.468C13.0563 21.468 10.6687 19.0805 10.6687 16.1367C10.6687 13.193 13.0563 10.8055 16 10.8055C18.9438 10.8055 21.3312 13.193 21.3312 16.1367C21.3312 19.0805 18.9438 21.468 16 21.468Z" fill="#CCD5E0"/>
<path d="M26.4625 7.59258C26.4625 8.65508 25.6 9.51133 24.5438 9.51133C23.4813 9.51133 22.625 8.64883 22.625 7.59258C22.625 6.53008 23.4875 5.67383 24.5438 5.67383C25.6 5.67383 26.4625 6.53633 26.4625 7.59258Z" fill="#CCD5E0"/>
</g>
<defs>
<clipPath id="clip0_473_26188">
<rect width="32" height="32" fill="white" transform="translate(0 0.136719)"/>
</clipPath>
</defs>
</svg>
