<svg width="32" height="33" viewBox="0 0 32 33" fill="none" xmlns="http://www.w3.org/2000/svg">
<g clip-path="url(#clip0_473_26193)">
<path d="M22.7637 0.136719H17.3707V21.9338C17.3707 24.5309 15.2966 26.6643 12.7153 26.6643C10.1341 26.6643 8.05991 24.5309 8.05991 21.9338C8.05991 19.3831 10.088 17.2961 12.5771 17.2034V11.7309C7.09195 11.8237 2.66699 16.3222 2.66699 21.9338C2.66699 27.5918 7.18413 32.1367 12.7615 32.1367C18.3387 32.1367 22.8558 27.5454 22.8558 21.9338V10.757C24.884 12.2411 27.373 13.1222 30.0003 13.1686V7.69614C25.9441 7.55701 22.7637 4.21787 22.7637 0.136719Z" fill="#CCD5E0"/>
</g>
<defs>
<clipPath id="clip0_473_26193">
<rect width="32" height="32" fill="white" transform="translate(0 0.136719)"/>
</clipPath>
</defs>
</svg>
