<svg width="292" height="86" viewBox="0 0 292 86" fill="none" xmlns="http://www.w3.org/2000/svg">
<path d="M262.407 17.15C252.484 17.15 246.947 27.0773 244.74 35.4727C251.328 34.4455 258.761 33.4318 264.646 30.0546C267.314 28.4409 269.123 26.0864 269.123 22.8864C269.123 21.5045 268.588 20.2045 267.524 18.9818C266.459 17.7591 264.751 17.15 262.407 17.15ZM288.627 67.5591C289.294 68.3727 289.353 69.5318 288.713 70.3682C280.138 81.6091 264.646 85.5 253.215 85.5C244.219 85.5 234.406 82.4 228.032 75.9409C221.522 69.1 218.758 59.8091 218.758 50.5273C218.758 41.9818 220.64 33.5046 224.432 25.8318C228.06 18.6046 233.451 12.1318 240.18 7.59091C247.157 2.95455 255.463 0.5 263.841 0.5C271.156 0.5 278.731 2.50909 284.305 7.43182C288.508 11.05 291.5 16.3 291.5 21.9318C291.5 25.7046 290.756 29.1546 289.262 32.2864C287.768 35.3682 285.159 38.1273 281.426 40.5727C277.749 43.0136 272.769 45.0864 266.478 46.7864C260.241 48.4864 252.383 49.8136 242.894 50.7682C241.862 59.8091 246.613 67.0182 257.126 67.0182C263.366 67.0182 267.62 65.1046 271.412 62.3364C275.83 59.1136 281.915 59.3455 285.369 63.5773L288.622 67.5591H288.627Z" fill="white"/>
<path d="M164.035 79.5636C159.923 59.3273 151.681 23.2727 145.724 2.80455C145.39 1.65 146.254 0.5 147.46 0.5H156.574C164.93 0.5 172.226 6.21364 173.908 14.3591C176.896 28.8273 178.76 41.0682 181.144 54.2455C191.328 31.7864 194.512 22.9364 201.457 9.70001C204.463 3.96365 210.512 0.5 217.013 0.5H229.92C231.263 0.5 232.135 1.9091 231.528 3.10455L192.018 80.5591C191.319 81.9273 190.067 82.9227 188.541 83.1545C186.353 83.4818 182.661 83.8727 177.48 83.8727C173.099 83.8727 169.928 83.5909 167.841 83.3091C165.867 83.0409 164.428 81.5091 164.03 79.5636H164.035Z" fill="white"/>
<path d="M170.225 81.1273C169.201 83.7363 166.442 83.1045 165.446 82.1591C164.738 81.4909 164.24 80.5818 164.034 79.5636C159.922 59.3227 151.681 23.2636 145.718 2.8C145.385 1.65 146.253 0.5 147.459 0.5H156.724C165.062 0.5 172.249 6.33636 173.925 14.4636C176.9 28.8864 178.759 41.1 181.144 54.2454L170.225 81.1227V81.1273Z" fill="white"/>
<path d="M170.225 81.1273C169.201 83.7363 166.442 83.1045 165.446 82.1591C164.738 81.4909 164.24 80.5818 164.034 79.5636C159.922 59.3227 151.681 23.2636 145.718 2.8C145.385 1.65 146.253 0.5 147.459 0.5H156.724C165.062 0.5 172.249 6.33636 173.925 14.4636C176.9 28.8864 178.759 41.1 181.144 54.2454L170.225 81.1227V81.1273Z" fill="url(#paint0_linear_633_35475)"/>
<path d="M117.259 17.15C107.336 17.15 101.799 27.0773 99.5924 35.4727C106.18 34.4455 113.614 33.4318 119.498 30.0546C122.166 28.4409 123.975 26.0864 123.975 22.8864C123.975 21.5045 123.441 20.2045 122.376 18.9818C121.312 17.7591 119.603 17.15 117.259 17.15ZM143.479 67.5591C144.146 68.3727 144.206 69.5318 143.566 70.3682C134.99 81.6091 119.498 85.5 108.067 85.5C99.0716 85.5 89.2581 82.4 82.8848 75.9409C76.3744 69.1 73.6104 59.8091 73.6104 50.5273C73.6104 41.9818 75.4926 33.5046 79.2846 25.8318C82.9122 18.6046 88.3032 12.1318 95.0329 7.59091C102.009 2.95455 110.315 0.5 118.694 0.5C126.008 0.5 133.583 2.50909 139.157 7.43182C143.36 11.05 146.353 16.3 146.353 21.9318C146.353 25.7046 145.608 29.1546 144.114 32.2864C142.62 35.3682 140.011 38.1273 136.279 40.5727C132.601 43.0136 127.621 45.0864 121.33 46.7864C115.094 48.4864 107.236 49.8136 97.7467 50.7682C96.7141 59.8091 101.466 67.0182 111.978 67.0182C118.219 67.0182 122.472 65.1046 126.264 62.3364C130.682 59.1136 136.768 59.3455 140.222 63.5773L143.475 67.5591H143.479Z" fill="white"/>
<path d="M18.8873 79.5636C14.7755 59.3273 6.53365 23.2727 0.576102 2.80455C0.242588 1.65 1.10608 0.5 2.31221 0.5H11.4267C19.7828 0.5 27.079 6.21364 28.7603 14.3591C31.7482 28.8273 33.6122 41.0682 35.997 54.2455C46.1806 31.7864 49.365 22.9364 56.3094 9.70001C59.3156 3.96365 65.3645 0.5 71.8657 0.5H84.7722C86.1154 0.5 86.988 1.9091 86.3804 3.10455L46.8705 80.5591C46.1715 81.9273 44.9197 82.9227 43.3937 83.1545C41.2053 83.4818 37.5138 83.8727 32.333 83.8727C27.9516 83.8727 24.7809 83.5909 22.6931 83.3091C20.7194 83.0409 19.2803 81.5091 18.8828 79.5636H18.8873Z" fill="white"/>
<path d="M25.0783 81.1273C24.0549 83.7363 21.2954 83.1045 20.2994 82.1591C19.5913 81.4909 19.0933 80.5818 18.8877 79.5636C14.7759 59.3227 6.53404 23.2636 0.571929 2.8C0.238416 1.65 1.10646 0.5 2.31259 0.5H11.5779C19.9157 0.5 27.1022 6.33636 28.7789 14.4636C31.7531 28.8864 33.6125 41.1 35.9974 54.2454L25.0783 81.1227V81.1273Z" fill="white"/>
<path d="M25.0783 81.1273C24.0549 83.7363 21.2954 83.1045 20.2994 82.1591C19.5913 81.4909 19.0933 80.5818 18.8877 79.5636C14.7759 59.3227 6.53404 23.2636 0.571929 2.8C0.238416 1.65 1.10646 0.5 2.31259 0.5H11.5779C19.9157 0.5 27.1022 6.33636 28.7789 14.4636C31.7531 28.8864 33.6125 41.1 35.9974 54.2454L25.0783 81.1227V81.1273Z" fill="url(#paint1_linear_633_35475)"/>
<defs>
<linearGradient id="paint0_linear_633_35475" x1="158.287" y1="1.97727" x2="173.571" y2="68.7113" gradientUnits="userSpaceOnUse">
<stop stop-color="#0085FF" stop-opacity="0"/>
<stop offset="1" stop-color="#0085FF" stop-opacity="0.2"/>
</linearGradient>
<linearGradient id="paint1_linear_633_35475" x1="13.1403" y1="1.97727" x2="28.4247" y2="68.7113" gradientUnits="userSpaceOnUse">
<stop stop-color="#0085FF" stop-opacity="0"/>
<stop offset="1" stop-color="#0085FF" stop-opacity="0.2"/>
</linearGradient>
</defs>
</svg>
