<svg width="32" height="33" viewBox="0 0 32 33" fill="none" xmlns="http://www.w3.org/2000/svg">
<path d="M31.6812 9.73711C31.6812 9.73711 31.3688 7.53086 30.4062 6.56211C29.1875 5.28711 27.825 5.28086 27.2 5.20586C22.725 4.88086 16.0063 4.88086 16.0063 4.88086H15.9937C15.9937 4.88086 9.275 4.88086 4.8 5.20586C4.175 5.28086 2.8125 5.28711 1.59375 6.56211C0.63125 7.53086 0.325 9.73711 0.325 9.73711C0.325 9.73711 0 12.3309 0 14.9184V17.3434C0 19.9309 0.31875 22.5246 0.31875 22.5246C0.31875 22.5246 0.63125 24.7309 1.5875 25.6996C2.80625 26.9746 4.40625 26.9309 5.11875 27.0684C7.68125 27.3121 16 27.3871 16 27.3871C16 27.3871 22.725 27.3746 27.2 27.0559C27.825 26.9809 29.1875 26.9746 30.4062 25.6996C31.3688 24.7309 31.6812 22.5246 31.6812 22.5246C31.6812 22.5246 32 19.9371 32 17.3434V14.9184C32 12.3309 31.6812 9.73711 31.6812 9.73711ZM12.6938 20.2871V11.2934L21.3375 15.8059L12.6938 20.2871Z" fill="#CCD5E0"/>
</svg>
